# xmcd
#
# Track frame offsets: 
#        150
#        14242
#        42280
#        64340
#        78846
#        95942
#        118569
#        140416
#        156646
#        180676
#        202680
#        219933
#        254585
#
# Disc length: 3606 seconds
#
# Revision: 0
# Processed by: cddbd v1.5.2PL0 Copyright (c) Steve Scherf et al.
# Submitted via: ExactAudioCopy v1.0b1
#
DISCID=bf0e140d
DTITLE=Nathan Peek Band - Sore Thumbs
DYEAR=2007
DGENRE=Country
TTITLE0=I Only Came Here To Drink
TTITLE1=You Don't Belong To Anyone
TTITLE2=Darling Gardenia
TTITLE3=Stolen Cars and Winding Hills
TTITLE4=Snake In The Grass
TTITLE5=For The Fear Of Winning
TTITLE6=Rhyme Or Reason
TTITLE7=Talking Ray Bradbury Blues
TTITLE8=When Did We Grow Old?
TTITLE9=Nobody's Cheating Tonight
TTITLE10=Breakfast For Dinner
TTITLE11=Hearts Are Like Angry Souls
TTITLE12=Dancing With Emily Veers
EXTD=
EXTT0=
EXTT1=
EXTT2=
EXTT3=
EXTT4=
EXTT5=
EXTT6=
EXTT7=
EXTT8=
EXTT9=
EXTT10=
EXTT11=
EXTT12=
PLAYORDER=
